<svg width="972" height="444.252" viewBox="0 0 257.175 117.542" xmlns="http://www.w3.org/2000/svg"><path d="M-139.7 204.744v-54.226h8.853v22.687h27.508v-22.687h8.854v54.226h-8.854v-23.951h-27.508v23.95zM-75.346 205.693c-1.317 0-2.74-.158-4.268-.475a12.987 12.987 0 0 1-4.309-1.739c-1.343-.843-2.438-2.016-3.28-3.518-.843-1.502-1.265-3.464-1.265-5.889 0-2.846.658-5.19 1.976-7.036 1.317-1.843 3.162-3.292 5.534-4.347 2.371-1.054 5.203-1.79 8.497-2.214 3.292-.42 6.89-.632 10.79-.632v-4.11c0-1.37-.225-2.582-.672-3.637-.449-1.053-1.266-1.87-2.451-2.45-1.186-.579-2.886-.87-5.098-.87-2.213 0-3.941.277-5.178.83-1.239.554-2.109 1.24-2.609 2.056-.5.818-.75 1.7-.75 2.648v1.185h-7.905a4.012 4.012 0 0 1-.08-.79v-.948c0-2.476.699-4.57 2.096-6.284 1.396-1.711 3.36-3.017 5.889-3.912 2.529-.896 5.454-1.345 8.774-1.345 3.583 0 6.572.515 8.972 1.542 2.397 1.027 4.2 2.49 5.414 4.386 1.212 1.897 1.818 4.19 1.818 6.877v21.106c0 1.002.25 1.713.75 2.134.5.423 1.093.632 1.779.632h2.846v5.533c-.632.266-1.423.526-2.372.791-.948.263-2.055.396-3.32.396-1.422 0-2.621-.251-3.596-.751a6.142 6.142 0 0 1-2.372-2.135 8.292 8.292 0 0 1-1.225-3.123h-.474a15.313 15.313 0 0 1-3.439 3.202c-1.344.923-2.885 1.634-4.624 2.134-1.738.5-3.688.75-5.848.75zm2.292-6.798c1.633 0 3.15-.25 4.545-.75 1.396-.5 2.595-1.212 3.597-2.135a10.056 10.056 0 0 0 2.372-3.32c.579-1.29.87-2.7.87-4.229v-2.766c-3.637 0-6.825.211-9.565.632-2.74.423-4.874 1.199-6.402 2.332-1.53 1.134-2.292 2.701-2.292 4.704 0 1.212.262 2.227.79 3.042.526.818 1.317 1.437 2.372 1.858 1.052.423 2.29.632 3.713.632zM-44.313 204.744v-41.578h6.799l.71 5.928h.555c1-1.528 2.185-2.793 3.557-3.794 1.369-1 2.884-1.765 4.544-2.292 1.66-.527 3.491-.791 5.495-.791 2.635 0 4.953.462 6.956 1.384 2.002.922 3.57 2.41 4.703 4.466 1.133 2.056 1.7 4.822 1.7 8.3v28.378h-8.222v-27.113c0-1.581-.198-2.898-.593-3.952-.396-1.053-.963-1.896-1.7-2.53-.738-.631-1.608-1.079-2.608-1.343-1.003-.263-2.109-.395-3.32-.395-1.897 0-3.624.462-5.178 1.383-1.555.923-2.806 2.201-3.755 3.833-.948 1.634-1.423 3.558-1.423 5.77v24.347h-8.22zM-1.755 204.744v-41.578h6.798l.712 5.928h.553c1-1.528 2.186-2.793 3.557-3.794 1.37-1 2.885-1.765 4.545-2.292 1.66-.527 3.49-.791 5.494-.791 2.635 0 4.953.462 6.956 1.384 2.002.922 3.57 2.41 4.704 4.466 1.132 2.056 1.699 4.822 1.699 8.3v28.378h-8.221v-27.113c0-1.581-.198-2.898-.593-3.952-.396-1.053-.963-1.896-1.7-2.53-.739-.631-1.609-1.079-2.609-1.343-1.002-.263-2.108-.395-3.32-.395-1.897 0-3.624.462-5.177 1.383-1.555.923-2.807 2.201-3.755 3.833-.949 1.634-1.423 3.558-1.423 5.77v24.347h-8.221zM58.818 205.692c-4.322 0-7.971-.778-10.948-2.33-2.977-1.554-5.217-3.94-6.719-7.155-1.502-3.214-2.252-7.297-2.252-12.252 0-5.006.75-9.103 2.252-12.292 1.502-3.188 3.74-5.56 6.72-7.114 2.976-1.554 6.625-2.332 10.947-2.332 4.428 0 8.115.778 11.067 2.332 2.95 1.555 5.178 3.926 6.678 7.114 1.502 3.189 2.254 7.286 2.254 12.292 0 4.954-.752 9.038-2.254 12.252-1.501 3.216-3.728 5.6-6.678 7.154-2.953 1.554-6.64 2.331-11.067 2.331zm0-6.797c2.635 0 4.795-.514 6.482-1.541 1.686-1.028 2.937-2.595 3.755-4.704.817-2.106 1.224-4.768 1.224-7.984v-1.423c0-3.213-.408-5.875-1.224-7.983-.818-2.107-2.069-3.676-3.755-4.703-1.687-1.028-3.847-1.542-6.482-1.542-2.582 0-4.716.514-6.402 1.542-1.688 1.027-2.939 2.596-3.755 4.703-.818 2.109-1.226 4.77-1.226 7.983v1.423c0 3.216.408 5.877 1.226 7.984.816 2.109 2.067 3.676 3.755 4.704 1.686 1.027 3.82 1.541 6.402 1.541zM94.579 204.744l-15.415-41.578h8.616l7.192 19.84a326.43 326.43 0 0 1 2.61 8.3c.475 1.58.895 3.003 1.264 4.27h.396c.316-1.212.697-2.596 1.145-4.15.448-1.554.91-3.096 1.384-4.625a81.021 81.021 0 0 1 1.266-3.794l7.113-19.84h8.38l-15.493 41.579H94.58zM138.32 205.692c-4.267 0-7.836-.778-10.71-2.33-2.872-1.554-5.046-3.94-6.52-7.155-1.477-3.214-2.215-7.297-2.215-12.252 0-5.006.738-9.103 2.215-12.292 1.474-3.188 3.662-5.56 6.56-7.114 2.898-1.554 6.508-2.332 10.83-2.332 3.953 0 7.258.75 9.92 2.253 2.66 1.502 4.677 3.782 6.046 6.837 1.37 3.057 2.058 6.905 2.058 11.541v3.163h-29.168c.105 2.951.552 5.414 1.343 7.39.79 1.976 1.988 3.426 3.598 4.347 1.605.923 3.648 1.384 6.127 1.384 1.526 0 2.895-.197 4.107-.593 1.213-.396 2.241-.974 3.084-1.739a8.032 8.032 0 0 0 1.977-2.767c.476-1.08.712-2.305.712-3.676h8.063c0 2.478-.424 4.664-1.267 6.56a12.59 12.59 0 0 1-3.675 4.783c-1.61 1.291-3.517 2.28-5.731 2.965-2.212.684-4.663 1.026-7.351 1.026zm-10.827-25.69h20.393c0-2.055-.224-3.781-.672-5.177-.45-1.396-1.095-2.541-1.936-3.438a7.299 7.299 0 0 0-3.005-1.937c-1.16-.395-2.476-.592-3.953-.592-2.212 0-4.098.395-5.65 1.184-1.555.791-2.755 2.017-3.596 3.676-.843 1.66-1.372 3.755-1.581 6.285zM162.523 204.744v-41.579h6.799l.712 6.72h.476a17.59 17.59 0 0 1 1.855-3.715c.765-1.16 1.767-2.107 3.005-2.846 1.239-.738 2.753-1.106 4.546-1.106.84 0 1.593.08 2.253.237.657.158 1.171.29 1.54.395v7.746h-2.764c-1.688 0-3.177.265-4.467.79a8.269 8.269 0 0 0-3.241 2.332c-.87 1.028-1.503 2.28-1.896 3.755-.397 1.476-.595 3.136-.595 4.98v22.29h-8.22z" fill="#003c70" style="stroke-width:2.38125" transform="matrix(.6 0 0 .6 83.82 -5.874)"/><path d="M200.86 204.744v-54.226h28.536c3.846 0 7.037.686 9.566 2.056 2.529 1.37 4.426 3.28 5.69 5.73 1.265 2.451 1.896 5.31 1.896 8.576 0 3.637-.816 6.798-2.45 9.487-1.634 2.687-3.953 4.663-6.956 5.928l11.304 22.449h-9.644l-10.275-20.947h-18.814v20.947zm8.853-28.377h18.971c2.846 0 5.046-.843 6.601-2.53 1.553-1.686 2.331-4.032 2.331-7.036 0-1.843-.343-3.412-1.026-4.703-.686-1.291-1.688-2.279-3.005-2.965-1.317-.684-2.95-1.027-4.9-1.027h-18.97v18.26zM270.744 205.692c-4.27 0-7.839-.778-10.71-2.33-2.872-1.554-5.047-3.94-6.523-7.155-1.476-3.214-2.212-7.297-2.212-12.252 0-5.006.736-9.103 2.212-12.292 1.476-3.188 3.662-5.56 6.56-7.114 2.898-1.554 6.508-2.332 10.83-2.332 3.953 0 7.258.75 9.92 2.253 2.663 1.502 4.677 3.782 6.049 6.837 1.37 3.057 2.055 6.905 2.055 11.541v3.163h-29.168c.105 2.951.555 5.414 1.343 7.39.793 1.976 1.99 3.426 3.598 4.347 1.608.923 3.648 1.384 6.127 1.384 1.527 0 2.898-.197 4.11-.593 1.212-.396 2.239-.974 3.084-1.739a8.094 8.094 0 0 0 1.976-2.767c.474-1.08.71-2.305.71-3.676h8.063c0 2.478-.422 4.664-1.265 6.56a12.62 12.62 0 0 1-3.676 4.783c-1.608 1.291-3.517 2.28-5.73 2.965-2.214.684-4.664 1.026-7.35 1.026zm-10.83-25.69h20.393c0-2.055-.224-3.781-.671-5.177-.448-1.396-1.093-2.541-1.936-3.438a7.306 7.306 0 0 0-3.003-1.937c-1.16-.395-2.479-.592-3.953-.592-2.214 0-4.098.395-5.65 1.184-1.556.791-2.756 2.017-3.599 3.676-.843 1.66-1.371 3.755-1.58 6.285z" fill="#0077d4" style="stroke-width:2.38125" transform="matrix(.6 0 0 .6 83.82 -5.874)"/><path d="M132.796 46.878h-6.25c-4.11 0-7.902-3.526-7.902-7.875V10.111c0-4.348-3.977-7.815-8.084-7.815h-4.151c-4.11 0-8.03 3.464-8.03 7.815V63.27c0 4.348 3.711 7.875 7.818 7.875h4.58c4.11 0 7.869-3.527 7.869-7.875v-14.37" stroke="#003c70" stroke-miterlimit="10" class="first-line" fill="none" stroke-width="4.591799999999999"/><path d="M124.691 26.562h6.25c4.11 0 7.902 3.526 7.902 7.875v28.892c0 4.348 3.977 7.815 8.084 7.815h4.151c4.11 0 8.03-3.465 8.03-7.815V10.17c0-4.349-3.711-7.875-7.818-7.875h-4.58c-4.11 0-7.869 3.526-7.869 7.875v14.37" stroke="#0077d4" stroke-miterlimit="10" class="second-line" fill="none" stroke-width="4.591799999999999"/></svg>