<svg width="594" height="100" viewBox="0 0 594 100" fill="none" xmlns="http://www.w3.org/2000/svg">
<path d="M543.001 100C520.809 100 505.604 84.1098 505.604 61.918C505.604 37.9454 521.357 23.1509 541.631 23.1509C562.179 23.1509 575.878 37.5344 576.289 61.0961V64.9317H521.768C522.864 77.6714 530.809 86.3016 543.138 86.3016C551.494 86.3016 557.796 82.192 560.262 74.9317H576.015C572.316 90.5481 560.125 100 543.001 100ZM522.453 53.5618H559.577C557.522 43.1509 551.083 36.8495 541.631 36.8495C532.042 36.8495 524.919 43.1509 522.453 53.5618Z" fill="#FCFCFC"/>
<path d="M449.565 97.9454H433.401V25.3427H446.415L447.784 36.0276C452.305 28.4933 461.483 23.1509 472.305 23.1509C487.784 23.1509 497.921 33.5618 497.921 49.8632V97.9454H481.757V50.6851C481.757 42.6029 476.415 37.2605 467.373 37.2605C456.826 37.2605 449.702 44.5207 449.565 53.9728V97.9454Z" fill="#FCFCFC"/>
<path d="M376.965 100C348.609 100 329.157 80.274 329.157 49.726C329.157 20.6849 347.513 0 376.965 0C405.458 0 425.047 19.589 425.047 49.726C425.047 79.0411 406.554 100 376.965 100ZM376.965 85.0685C396.143 85.0685 408.335 71.3699 408.335 49.726C408.335 28.3562 396.143 14.7945 376.965 14.7945C357.924 14.7945 345.869 28.3562 345.869 49.726C345.869 71.3699 357.924 85.0685 376.965 85.0685Z" fill="#FCFCFC"/>
<path d="M266.146 100C240.94 100 224.091 87.3973 222.858 68.3562H239.707C241.214 78.7671 250.803 85.3425 266.146 85.3425C278.611 85.3425 285.187 80.5479 285.187 72.4658C285.187 64.9315 279.296 61.9178 269.981 59.0411L254.365 54.3836C243.132 50.9589 225.598 46.0274 225.598 27.2603C225.598 11.5068 238.611 0 259.844 0C282.995 0 297.789 12.4658 299.022 32.7397H282.31C281.625 21.9178 273.68 14.6575 259.296 14.6575C248.748 14.6575 241.899 19.0411 241.899 26.4384C241.899 34.7945 250.255 36.8493 259.57 39.863L274.091 44.3836C287.652 48.6301 301.899 53.5617 301.899 71.6438C301.899 89.0411 288.063 100 266.146 100Z" fill="#FCFCFC"/>
<path d="M226.087 97.9456H160.745V2.05518H177.183V83.1511H215.197L226.087 97.9456Z" fill="#FCFCFC"/>
<path d="M149.15 97.9456H132.711V2.05518H149.15V97.9456Z" fill="#FCFCFC"/>
<path d="M98 98H2V48.9951C45.0484 46.8396 77.2207 31.0964 98 2.80859V98Z" fill="white"/>
</svg>
